# Blender v2.78 (sub 0) OBJ File: 'nipple.blend'
# www.blender.org
mtllib nipple.mtl
o Plane
v -0.000000 -0.001650 0.000025
v 0.000322 -0.001618 0.000025
v 0.000631 -0.001524 0.000025
v 0.000917 -0.001372 0.000025
v 0.001167 -0.001167 0.000025
v 0.001372 -0.000917 0.000025
v 0.001524 -0.000631 0.000025
v 0.001618 -0.000322 0.000025
v 0.001650 0.000000 0.000025
v 0.001618 0.000322 0.000025
v 0.001524 0.000631 0.000025
v 0.001372 0.000917 0.000025
v 0.001167 0.001167 0.000025
v 0.000917 0.001372 0.000025
v 0.000631 0.001524 0.000025
v 0.000322 0.001618 0.000025
v -0.000000 0.001650 0.000025
v -0.000322 0.001618 0.000025
v -0.000631 0.001524 0.000025
v -0.000917 0.001372 0.000025
v -0.001167 0.001167 0.000025
v -0.001372 0.000917 0.000025
v -0.001524 0.000631 0.000025
v -0.001618 0.000322 0.000025
v -0.001650 -0.000000 0.000025
v -0.001618 -0.000322 0.000025
v -0.001524 -0.000631 0.000025
v -0.001372 -0.000917 0.000025
v -0.001167 -0.001167 0.000025
v -0.000917 -0.001372 0.000025
v -0.000631 -0.001524 0.000025
v -0.000322 -0.001618 0.000025
v -0.000000 -0.001650 0.005025
v 0.000322 -0.001618 0.005025
v 0.000631 -0.001524 0.004822
v 0.000917 -0.001372 0.004822
v 0.001167 -0.001167 0.004822
v 0.001372 -0.000917 0.004822
v 0.001524 -0.000631 0.004822
v 0.001618 -0.000322 0.005025
v 0.001650 0.000000 0.005025
v 0.001618 0.000322 0.005025
v 0.001524 0.000631 0.004865
v 0.001372 0.000917 0.004865
v 0.001167 0.001167 0.004865
v 0.000917 0.001372 0.004865
v 0.000631 0.001524 0.004865
v 0.000322 0.001618 0.005025
v -0.000000 0.001650 0.005025
v -0.000322 0.001618 0.005025
v -0.000631 0.001524 0.004871
v -0.000917 0.001372 0.004871
v -0.001167 0.001167 0.004871
v -0.001372 0.000917 0.004871
v -0.001524 0.000631 0.004871
v -0.001618 0.000322 0.005025
v -0.001650 -0.000000 0.005025
v -0.001618 -0.000322 0.005025
v -0.001524 -0.000631 0.004858
v -0.001372 -0.000917 0.004858
v -0.001167 -0.001167 0.004858
v -0.000917 -0.001372 0.004858
v -0.000631 -0.001524 0.004858
v -0.000322 -0.001618 0.005025
v -0.000000 -0.001650 0.010025
v 0.000322 -0.001618 0.010025
v 0.001618 -0.000322 0.010025
v 0.001650 0.000000 0.010025
v 0.001618 0.000322 0.010025
v 0.000322 0.001618 0.010025
v -0.000000 0.001650 0.010025
v -0.000322 0.001618 0.010025
v -0.001618 0.000322 0.010025
v -0.001650 -0.000000 0.010025
v -0.001618 -0.000322 0.010025
v -0.000322 -0.001618 0.010025
v -0.000000 -0.001100 0.010025
v 0.000421 -0.001016 0.010025
v 0.000778 -0.000778 0.010025
v 0.001016 -0.000421 0.010025
v 0.001100 0.000000 0.010025
v 0.001016 0.000421 0.010025
v 0.000778 0.000778 0.010025
v 0.000421 0.001016 0.010025
v 0.000000 0.001100 0.010025
v -0.000421 0.001016 0.010025
v -0.000778 0.000778 0.010025
v -0.001016 0.000421 0.010025
v -0.001100 0.000000 0.010025
v -0.001016 -0.000421 0.010025
v -0.000778 -0.000778 0.010025
v -0.000421 -0.001016 0.010025
v -0.000000 -0.001100 0.005025
v 0.000421 -0.001016 0.005025
v 0.000778 -0.000778 0.005025
v 0.001016 -0.000421 0.005025
v 0.001100 0.000000 0.005025
v 0.001016 0.000421 0.005025
v 0.000778 0.000778 0.005025
v 0.000421 0.001016 0.005025
v 0.000000 0.001100 0.005025
v -0.000421 0.001016 0.005025
v -0.000778 0.000778 0.005025
v -0.001016 0.000421 0.005025
v -0.001100 0.000000 0.005025
v -0.001016 -0.000421 0.005025
v -0.000778 -0.000778 0.005025
v -0.000421 -0.001016 0.005025
vt 0.7812 0.7513
vt 0.9688 0.7513
vt 0.9688 1.0000
vt 0.7812 1.0000
vt 0.5312 0.7513
vt 0.7188 0.7513
vt 0.7188 1.0000
vt 0.5312 1.0000
vt 0.4688 0.7513
vt 0.4688 1.0000
vt 0.2813 1.0000
vt 0.2813 0.7513
vt 0.0313 0.7513
vt 0.2188 0.7513
vt 0.2188 1.0000
vt 0.0313 1.0000
vt 0.5000 1.0000
vt 0.5000 1.0000
vt 0.8750 1.0000
vt 0.8125 1.0000
vt 0.4375 1.0000
vt 0.5625 1.0000
vt 0.6250 1.0000
vt 0.3750 1.0000
vt 0.1250 1.0000
vt 0.3125 1.0000
vt 0.6875 1.0000
vt 0.2500 1.0000
vt 0.7500 1.0000
vt 0.2500 1.0000
vt 0.7500 1.0000
vt 0.1875 1.0000
vt 0.9375 1.0000
vt 0.0625 1.0000
vt 1.0000 1.0000
vt 0.0000 1.0000
vt 1.0000 1.0000
vt 0.0000 1.0000
vt 0.5312 0.5013
vt 0.5000 0.5013
vt 0.4688 0.5013
vt 1.0000 0.5013
vt 1.0000 0.5013
vt 1.0000 0.5013
vt 1.0000 0.5013
vt 1.0000 0.5013
vt 1.0000 0.5013
vt 1.0000 0.5013
vt 1.0000 0.5013
vt 1.0000 0.5013
vt 1.0000 0.5013
vt 1.0000 0.5013
vt 1.0000 0.5013
vt 1.0000 0.5013
vt 1.0000 0.5013
vt 1.0000 0.5013
vt 0.9688 0.5013
vt 0.9375 0.5013
vt 0.9062 0.5013
vt 0.8750 0.5013
vt 0.8438 0.5013
vt 0.8125 0.5013
vt 0.7812 0.5013
vt 0.7500 0.5013
vt 0.7188 0.5013
vt 0.6875 0.5013
vt 0.6563 0.5013
vt 0.6250 0.5013
vt 0.5938 0.5013
vt 0.5625 0.5013
vt 0.5000 1.0000
vt 0.5000 0.0407
vt 0.5246 0.0407
vt 0.5246 1.0000
vt 0.9047 1.0000
vt 0.9047 0.0000
vt 0.9389 0.0000
vt 0.9389 1.0000
vt 0.7457 0.0000
vt 0.7457 0.9692
vt 0.7135 0.9692
vt 0.7135 0.0000
vt 0.4710 1.0000
vt 0.4710 0.0407
vt 0.7746 0.0000
vt 0.7746 0.9692
vt 0.4389 1.0000
vt 0.4389 0.0000
vt 0.0246 0.0000
vt 0.0246 0.9692
vt 0.0000 0.9692
vt 0.0000 0.0000
vt 0.4047 1.0000
vt 0.4047 0.0000
vt 0.0536 0.0000
vt 0.0536 0.9692
vt 0.3699 1.0000
vt 0.3699 0.0000
vt 0.0857 0.0000
vt 0.0857 1.0000
vt 0.3357 1.0000
vt 0.3357 0.0321
vt 0.1199 0.0000
vt 0.1199 1.0000
vt 0.3036 1.0000
vt 0.3036 0.0321
vt 0.1547 0.0000
vt 0.1547 1.0000
vt 0.2746 1.0000
vt 0.2746 0.0321
vt 0.1889 0.0000
vt 0.1889 0.9666
vt 0.5492 0.0000
vt 0.5492 0.9679
vt 0.5246 0.9679
vt 0.5246 0.0000
vt 0.2210 0.0000
vt 0.2210 0.9666
vt 0.5782 0.0000
vt 0.5782 0.9679
vt 0.8699 1.0000
vt 0.8699 0.0000
vt 0.2500 0.0000
vt 0.2500 0.9666
vt 0.6104 0.0000
vt 0.6104 1.0000
vt 0.8357 1.0000
vt 0.8357 0.0407
vt 0.2746 0.0000
vt 0.2746 0.9666
vt 0.6445 0.0000
vt 0.6445 1.0000
vt 0.8036 1.0000
vt 0.8036 0.0407
vt 0.9710 1.0000
vt 0.9710 0.0334
vt 1.0000 0.0334
vt 1.0000 1.0000
vt 0.6793 0.0000
vt 0.6793 1.0000
vt 0.7746 1.0000
vt 0.7746 0.0407
vt 0.5000 0.7513
vt 1.0000 0.7513
vt 0.0000 0.7513
vt 0.7500 0.7513
vt 0.2500 0.7513
vt 0.8125 0.7432
vt 0.9375 0.7432
vt 0.5625 0.7411
vt 0.6875 0.7411
vt 0.3125 0.7429
vt 0.4375 0.7429
vt 0.0625 0.7436
vt 0.1875 0.7436
vt 0.6250 0.7513
vt 0.5625 0.7513
vt 0.1250 0.7513
vt 0.0625 0.7513
vt 0.6875 0.7513
vt 0.1875 0.7513
vt 0.7500 0.7513
vt 0.2500 0.7513
vt 0.8125 0.7513
vt 0.3125 0.7513
vt 0.8750 0.7513
vt 0.3750 0.7513
vt 0.9375 0.7513
vt 0.4375 0.7513
vt 1.0000 0.7513
vt 0.5000 0.7513
vt 0.0000 0.7513
vt 0.0938 0.7436
vt 0.1250 0.7436
vt 0.1563 0.7436
vt 0.3438 0.7429
vt 0.3750 0.7429
vt 0.4063 0.7429
vt 0.5938 0.7411
vt 0.6250 0.7411
vt 0.6563 0.7411
vt 0.8438 0.7432
vt 0.8750 0.7432
vt 0.9062 0.7432
vn 0.7071 0.7071 0.0000
vn 0.7071 -0.7071 0.0000
vn -0.7071 -0.7071 0.0000
vn -0.7071 0.7071 0.0000
vn 0.0000 0.0000 1.0000
vn -0.0000 0.0000 -1.0000
vn 0.6052 -0.4044 -0.6857
vn 0.6052 -0.4044 0.6857
vn 0.5147 -0.5147 0.6857
vn 0.5147 -0.5147 -0.6857
vn 0.0000 -0.7279 -0.6857
vn 0.0000 -1.0000 0.0000
vn -0.3463 -0.9351 0.0750
vn -0.1420 -0.7139 -0.6857
vn -0.4044 0.6052 -0.6857
vn -0.4044 0.6052 0.6857
vn -0.4580 0.8112 0.3635
vn -0.2785 0.6725 -0.6857
vn 0.6725 -0.2785 -0.6857
vn 0.8289 -0.4714 0.3011
vn -0.5147 0.5147 -0.6857
vn -0.5147 0.5147 0.6857
vn 0.7139 -0.1420 -0.6857
vn 0.9329 -0.3528 0.0725
vn -0.6052 0.4044 -0.6857
vn -0.6052 0.4044 0.6857
vn 0.7279 0.0000 -0.6857
vn 1.0000 0.0000 0.0000
vn -0.6725 0.2785 -0.6857
vn -0.8112 0.4580 0.3635
vn 0.7139 0.1420 -0.6857
vn 0.9355 0.3450 0.0754
vn -0.7139 0.1420 -0.6857
vn -0.9360 0.3438 0.0758
vn 0.6725 0.2785 -0.6857
vn 0.8139 0.4603 0.3546
vn -0.7279 0.0000 -0.6857
vn -1.0000 0.0000 0.0000
vn 0.6052 0.4044 -0.6857
vn 0.6052 0.4044 0.6857
vn -0.7139 -0.1420 -0.6857
vn -0.9351 -0.3463 0.0750
vn 0.5147 0.5147 -0.6857
vn 0.5147 0.5147 0.6857
vn -0.6725 -0.2785 -0.6857
vn -0.8166 -0.4625 0.3453
vn 0.4044 0.6052 -0.6857
vn 0.4044 0.6052 0.6857
vn -0.6052 -0.4044 -0.6857
vn -0.6052 -0.4044 0.6857
vn 0.2785 0.6725 -0.6857
vn 0.4602 0.8139 0.3546
vn 0.1420 -0.7139 -0.6857
vn 0.3528 -0.9329 0.0725
vn -0.5147 -0.5147 -0.6857
vn -0.5147 -0.5147 0.6857
vn 0.1420 0.7139 -0.6857
vn 0.3450 0.9355 0.0754
vn 0.2785 -0.6725 -0.6857
vn 0.4714 -0.8289 0.3011
vn -0.4044 -0.6052 -0.6857
vn -0.4044 -0.6052 0.6857
vn 0.0000 0.7279 -0.6857
vn 0.0000 1.0000 0.0000
vn 0.4044 -0.6052 -0.6857
vn 0.4044 -0.6052 0.6857
vn -0.2785 -0.6725 -0.6857
vn -0.4625 -0.8166 0.3453
vn -0.1420 0.7139 -0.6857
vn -0.3438 0.9360 0.0758
vn 0.3290 -0.6957 0.6385
vn 0.0000 -0.7279 0.6857
vn 0.0000 0.7279 0.6857
vn 0.3290 0.6957 0.6385
vn -0.3290 0.6957 0.6385
vn -0.3290 -0.6957 0.6385
vn 0.7279 0.0000 0.6857
vn 0.6957 -0.3290 0.6385
vn 0.6957 0.3290 0.6385
vn -0.7279 0.0000 0.6857
vn -0.6957 0.3290 0.6385
vn -0.6957 -0.3290 0.6385
vn -0.2515 0.6071 0.7537
vn -0.4646 0.4646 0.7537
vn -0.3827 0.9239 0.0000
vn 0.2515 -0.6071 0.7537
vn 0.4646 -0.4646 0.7537
vn 0.3827 -0.9239 0.0000
vn -0.6071 0.2515 0.7537
vn -0.9239 0.3827 0.0000
vn 0.6071 -0.2515 0.7537
vn 0.9239 -0.3827 0.0000
vn -0.6571 0.0000 0.7537
vn 0.6571 0.0000 0.7537
vn -0.6071 -0.2515 0.7537
vn -0.9239 -0.3827 0.0000
vn 0.6071 0.2515 0.7537
vn 0.9239 0.3827 0.0000
vn -0.4646 -0.4646 0.7537
vn 0.4646 0.4646 0.7537
vn -0.2515 -0.6071 0.7537
vn -0.3827 -0.9239 0.0000
vn 0.2515 0.6071 0.7537
vn 0.3827 0.9239 0.0000
vn 0.0000 -0.6571 0.7537
vn 0.0000 0.6571 0.7537
usemtl Nipple_mat
s off
f 42/1/1 48/2/1 70/3/1 69/4/1
f 34/5/2 40/6/2 67/7/2 66/8/2
f 64/9/3 76/10/3 75/11/3 58/12/3
f 50/13/4 56/14/4 73/15/4 72/16/4
f 66/8/5 77/17/5 65/18/5
f 83/19/5 82/20/5 69/4/5
f 92/21/5 76/10/5 77/17/5
f 77/17/5 66/8/5 78/22/5
f 67/7/5 79/23/5 66/8/5
f 75/11/5 76/10/5 91/24/5
f 87/25/5 72/16/5 73/15/5
f 75/11/5 91/24/5 90/26/5
f 80/27/5 79/23/5 67/7/5
f 75/11/5 90/26/5 89/28/5
f 81/29/5 80/27/5 67/7/5
f 74/30/5 75/11/5 89/28/5
f 81/29/5 67/7/5 68/31/5
f 73/15/5 74/30/5 89/28/5
f 81/29/5 68/31/5 69/4/5
f 73/15/5 89/28/5 88/32/5
f 82/20/5 81/29/5 69/4/5
f 88/32/5 87/25/5 73/15/5
f 70/3/5 83/19/5 69/4/5
f 79/23/5 78/22/5 66/8/5
f 76/10/5 92/21/5 91/24/5
f 84/33/5 83/19/5 70/3/5
f 72/16/5 87/25/5 86/34/5
f 85/35/5 84/33/5 70/3/5
f 72/16/5 86/34/5 85/36/5
f 70/3/5 71/37/5 85/35/5
f 77/17/5 76/10/5 65/18/5
f 71/38/5 72/16/5 85/36/5
f 2/39/6 1/40/6 32/41/6 31/42/6 30/43/6 29/44/6 28/45/6 27/46/6 26/47/6 25/48/6 24/49/6 23/50/6 22/51/6 21/52/6 20/53/6 19/54/6 18/55/6 17/56/6 16/57/6 15/58/6 14/59/6 13/60/6 12/61/6 11/62/6 10/63/6 9/64/6 8/65/6 7/66/6 6/67/6 5/68/6 4/69/6 3/70/6
s 1
f 6/71/7 38/72/8 37/73/9 5/74/10
f 1/75/11 33/76/12 64/77/13 32/78/14
f 20/79/15 52/80/16 51/81/17 19/82/18
f 7/83/19 39/84/20 38/72/8 6/71/7
f 21/85/21 53/86/22 52/80/16 20/79/15
f 8/87/23 40/88/24 39/84/20 7/83/19
f 22/89/25 54/90/26 53/91/22 21/92/21
f 9/93/27 41/94/28 40/88/24 8/87/23
f 23/95/29 55/96/30 54/90/26 22/89/25
f 10/97/31 42/98/32 41/94/28 9/93/27
f 24/99/33 56/100/34 55/96/30 23/95/29
f 11/101/35 43/102/36 42/98/32 10/97/31
f 25/103/37 57/104/38 56/100/34 24/99/33
f 12/105/39 44/106/40 43/102/36 11/101/35
f 26/107/41 58/108/42 57/104/38 25/103/37
f 13/109/43 45/110/44 44/106/40 12/105/39
f 27/111/45 59/112/46 58/108/42 26/107/41
f 14/113/47 46/114/48 45/115/44 13/116/43
f 28/117/49 60/118/50 59/112/46 27/111/45
f 15/119/51 47/120/52 46/114/48 14/113/47
f 2/121/53 34/122/54 33/76/12 1/75/11
f 29/123/55 61/124/56 60/118/50 28/117/49
f 16/125/57 48/126/58 47/120/52 15/119/51
f 3/127/59 35/128/60 34/122/54 2/121/53
f 30/129/61 62/130/62 61/124/56 29/123/55
f 17/131/63 49/132/64 48/126/58 16/125/57
f 4/133/65 36/134/66 35/128/60 3/127/59
f 31/135/67 63/136/68 62/137/62 30/138/61
f 18/139/69 50/140/70 49/132/64 17/131/63
f 5/141/10 37/142/9 36/134/66 4/133/65
f 32/78/14 64/77/13 63/136/68 31/135/67
f 19/82/18 51/81/17 50/140/70 18/139/69
f 34/5/54 66/8/71 65/18/72 33/143/12
f 49/144/64 71/37/73 70/3/74 48/2/58
f 50/13/70 72/16/75 71/38/73 49/145/64
f 33/143/12 65/18/72 76/10/76 64/9/13
f 41/146/28 68/31/77 67/7/78 40/6/24
f 42/1/32 69/4/79 68/31/77 41/146/28
f 57/147/38 74/30/80 73/15/81 56/14/34
f 58/12/42 75/11/82 74/30/80 57/147/38
f 43/148/36 47/149/52 48/2/58 42/1/32
f 35/150/60 39/151/20 40/6/24 34/5/54
f 59/152/46 63/153/68 64/9/13 58/12/42
f 51/154/17 55/155/30 56/14/34 50/13/70
f 78/22/83 79/23/84 95/156/4 94/157/85
f 86/34/86 87/25/87 103/158/2 102/159/88
f 79/23/84 80/27/89 96/160/90 95/156/4
f 87/25/87 88/32/91 104/161/92 103/158/2
f 80/27/89 81/29/93 97/162/38 96/160/90
f 88/32/91 89/28/94 105/163/28 104/161/92
f 81/29/93 82/20/95 98/164/96 97/162/38
f 89/28/94 90/26/97 106/165/98 105/163/28
f 82/20/95 83/19/99 99/166/3 98/164/96
f 90/26/97 91/24/100 107/167/1 106/165/98
f 83/19/99 84/33/101 100/168/102 99/166/3
f 91/24/100 92/21/103 108/169/104 107/167/1
f 84/33/101 85/35/105 101/170/12 100/168/102
f 77/17/106 78/22/83 94/157/85 93/171/64
f 92/21/103 77/17/106 93/171/64 108/169/104
f 85/36/105 86/34/86 102/159/88 101/172/12
f 52/173/16 53/174/22 54/175/26 55/155/30 51/154/17
f 60/176/50 61/177/56 62/178/62 63/153/68 59/152/46
f 36/179/66 37/180/9 38/181/8 39/151/20 35/150/60
f 44/182/40 45/183/44 46/184/48 47/149/52 43/148/36
