# Blender v2.78 (sub 0) OBJ File: 'HDialIndicator_stick.blend'
# www.blender.org
mtllib HDialIndicator_stick.mtl
o Cylinder
v 0.050000 0.001000 0.000000
v 0.000000 0.000085 -0.000000
v 0.050000 0.000707 0.000707
v 0.000000 0.000060 0.000060
v 0.050000 -0.000000 0.001000
v 0.000000 0.000000 0.000085
v 0.050000 -0.000707 0.000707
v 0.000000 -0.000060 0.000060
v 0.050000 -0.001000 0.000000
v 0.000000 -0.000085 -0.000000
v 0.050000 -0.000707 -0.000707
v 0.000000 -0.000060 -0.000060
v 0.050000 0.000000 -0.001000
v 0.000000 0.000000 -0.000085
v 0.050000 0.000707 -0.000707
v 0.000000 0.000060 -0.000060
v 0.002090 0.000707 0.000707
v 0.002123 -0.000000 0.001000
v 0.002090 -0.000707 0.000707
v 0.002011 0.001000 -0.000000
v 0.002011 -0.001000 -0.000000
v 0.002011 -0.000707 -0.000707
v 0.002011 0.000000 -0.001000
v 0.002011 0.000707 -0.000707
vn -0.0000 0.9239 0.3827
vn -0.0000 0.3827 0.9239
vn -0.0000 -0.3827 0.9239
vn -0.0000 -0.9239 0.3827
vn 0.0000 -0.9239 -0.3827
vn 0.0000 -0.3827 -0.9239
vn -1.0000 0.0000 0.0000
vn 0.0000 0.3827 -0.9239
vn 0.0000 0.9239 -0.3827
vn 1.0000 0.0000 0.0000
vn -0.3874 -0.3528 -0.8517
vn -0.3722 -0.3415 0.8631
vn -0.3807 -0.8397 0.3873
vn -0.3807 0.8397 0.3873
vn -0.3874 0.3528 -0.8517
vn -0.3874 -0.8517 -0.3528
vn -0.3722 0.3415 0.8631
vn -0.3874 0.8517 -0.3528
usemtl HDIalIndicator_stick_mat
s off
f 1//1 20//1 17//1 3//1
f 3//2 17//2 18//2 5//2
f 5//3 18//3 19//3 7//3
f 7//4 19//4 21//4 9//4
f 9//5 21//5 22//5 11//5
f 11//6 22//6 23//6 13//6
f 4//7 2//7 16//7 14//7 12//7 10//7 8//7 6//7
f 13//8 23//8 24//8 15//8
f 15//9 24//9 20//9 1//9
f 1//10 3//10 5//10 7//10 9//10 11//10 13//10 15//10
f 23//11 22//11 12//11 14//11
f 19//12 18//12 6//12 8//12
f 21//13 19//13 8//13 10//13
f 17//14 20//14 2//14 4//14
f 24//15 23//15 14//15 16//15
f 22//16 21//16 10//16 12//16
f 18//17 17//17 4//17 6//17
f 20//18 24//18 16//18 2//18
