# Blender v2.78 (sub 0) OBJ File: 'VDialIndicator_small_arrow.blend'
# www.blender.org
mtllib VDialIndicator_small_arrow.mtl
o Plane.001
v -0.006192 0.000025 0.000000
v -0.006192 -0.000025 0.000000
v -0.000000 0.000500 0.000000
v 0.000191 0.000462 0.000000
v 0.000353 0.000354 0.000000
v 0.001610 0.000191 0.000000
v 0.001764 -0.000000 0.000000
v 0.001610 -0.000191 0.000000
v 0.000353 -0.000354 0.000000
v 0.000191 -0.000462 0.000000
v -0.000000 -0.000500 0.000000
v -0.000192 -0.000462 0.000000
v -0.000354 -0.000354 0.000000
v -0.000462 -0.000191 0.000000
v -0.006225 0.000000 0.000000
v -0.000462 0.000191 0.000000
v -0.000354 0.000354 0.000000
v -0.000192 0.000462 0.000000
v 0.001745 0.000096 0.000000
v 0.001745 -0.000096 0.000000
v 0.001347 0.000088 0.000000
v 0.001347 -0.000088 0.000000
vn 0.0000 0.0000 -1.0000
usemtl VDialIndicator_small_arrow_mat
s 1
f 4//1 18//1 3//1
f 17//1 18//1 5//1
f 5//1 16//1 17//1
f 8//1 7//1 20//1
f 1//1 16//1 2//1
f 6//1 8//1 22//1
f 6//1 22//1 21//1
f 16//1 14//1 2//1
f 15//1 1//1 2//1
f 22//1 5//1 21//1
f 7//1 8//1 6//1
f 16//1 13//1 14//1
f 5//1 9//1 16//1
f 7//1 6//1 19//1
f 22//1 9//1 5//1
f 9//1 13//1 16//1
f 10//1 13//1 9//1
f 10//1 12//1 13//1
f 11//1 12//1 10//1
f 5//1 18//1 4//1
